<mxfile host="Electron" modified="2025-08-11T08:56:45.583Z" agent="Mozilla/5.0 (Windows NT 10.0; Win64; x64) AppleWebKit/537.36 (KHTML, like Gecko) draw.io/24.2.5 Chrome/120.0.6099.109 Electron/28.1.0 Safari/537.36" etag="qANR7Jzwbj4VZ5kW5yUp" version="24.2.5" type="device">
  <diagram id="C5RBs43oDa-KdzZeNtuy" name="Page-1">
    <mxGraphModel dx="1202" dy="651" grid="1" gridSize="10" guides="1" tooltips="1" connect="1" arrows="1" fold="1" page="1" pageScale="1" pageWidth="1169" pageHeight="827" math="0" shadow="0">
      <root>
        <mxCell id="WIyWlLk6GJQsqaUBKTNV-0" />
        <mxCell id="WIyWlLk6GJQsqaUBKTNV-1" parent="WIyWlLk6GJQsqaUBKTNV-0" />
        <mxCell id="sWXjgbe4WIu8V-6H1I1--0" value=":Warmup" style="shape=umlLifeline;perimeter=lifelinePerimeter;whiteSpace=wrap;html=1;container=1;dropTarget=0;collapsible=0;recursiveResize=0;outlineConnect=0;portConstraint=eastwest;newEdgeStyle={&quot;curved&quot;:0,&quot;rounded&quot;:0};" vertex="1" parent="WIyWlLk6GJQsqaUBKTNV-1">
          <mxGeometry x="44" y="5" width="100" height="325" as="geometry" />
        </mxCell>
        <mxCell id="sWXjgbe4WIu8V-6H1I1--1" value=":Fwd" style="shape=umlLifeline;perimeter=lifelinePerimeter;whiteSpace=wrap;html=1;container=1;dropTarget=0;collapsible=0;recursiveResize=0;outlineConnect=0;portConstraint=eastwest;newEdgeStyle={&quot;curved&quot;:0,&quot;rounded&quot;:0};" vertex="1" parent="WIyWlLk6GJQsqaUBKTNV-1">
          <mxGeometry x="473" y="5" width="100" height="545" as="geometry" />
        </mxCell>
        <mxCell id="sWXjgbe4WIu8V-6H1I1--5" value="" style="html=1;points=[[0,0,0,0,5],[0,1,0,0,-5],[1,0,0,0,5],[1,1,0,0,-5]];perimeter=orthogonalPerimeter;outlineConnect=0;targetShapes=umlLifeline;portConstraint=eastwest;newEdgeStyle={&quot;curved&quot;:0,&quot;rounded&quot;:0};" vertex="1" parent="sWXjgbe4WIu8V-6H1I1--1">
          <mxGeometry x="45" y="300" width="10" height="50" as="geometry" />
        </mxCell>
        <mxCell id="sWXjgbe4WIu8V-6H1I1--2" value="wait and&amp;nbsp;&lt;span style=&quot;color: rgb(255, 0, 0); background-color: initial;&quot;&gt;prefetch&lt;/span&gt;" style="shape=umlLifeline;perimeter=lifelinePerimeter;whiteSpace=wrap;html=1;container=1;dropTarget=0;collapsible=0;recursiveResize=0;outlineConnect=0;portConstraint=eastwest;newEdgeStyle={&quot;curved&quot;:0,&quot;rounded&quot;:0};" vertex="1" parent="WIyWlLk6GJQsqaUBKTNV-1">
          <mxGeometry x="264" y="5" width="156" height="555" as="geometry" />
        </mxCell>
        <mxCell id="sWXjgbe4WIu8V-6H1I1--3" value="" style="html=1;points=[[0,0,0,0,5],[0,1,0,0,-5],[1,0,0,0,5],[1,1,0,0,-5]];perimeter=orthogonalPerimeter;outlineConnect=0;targetShapes=umlLifeline;portConstraint=eastwest;newEdgeStyle={&quot;curved&quot;:0,&quot;rounded&quot;:0};" vertex="1" parent="sWXjgbe4WIu8V-6H1I1--2">
          <mxGeometry x="73" y="88" width="10" height="52" as="geometry" />
        </mxCell>
        <mxCell id="sWXjgbe4WIu8V-6H1I1--10" value="" style="html=1;points=[[0,0,0,0,5],[0,1,0,0,-5],[1,0,0,0,5],[1,1,0,0,-5]];perimeter=orthogonalPerimeter;outlineConnect=0;targetShapes=umlLifeline;portConstraint=eastwest;newEdgeStyle={&quot;curved&quot;:0,&quot;rounded&quot;:0};" vertex="1" parent="sWXjgbe4WIu8V-6H1I1--2">
          <mxGeometry x="72" y="160" width="10" height="50" as="geometry" />
        </mxCell>
        <mxCell id="sWXjgbe4WIu8V-6H1I1--11" value="&lt;div style=&quot;color: rgb(204, 204, 204); background-color: rgb(31, 31, 31); font-family: Consolas, &amp;quot;Courier New&amp;quot;, monospace; font-size: 14px; line-height: 19px; white-space-collapse: preserve;&quot;&gt;&lt;span style=&quot;color: #dcdcaa;&quot;&gt;send_forward_recv_forward&lt;/span&gt;&lt;/div&gt;" style="html=1;align=left;spacingLeft=2;endArrow=block;rounded=0;edgeStyle=orthogonalEdgeStyle;curved=0;rounded=0;" edge="1" target="sWXjgbe4WIu8V-6H1I1--10" parent="sWXjgbe4WIu8V-6H1I1--2">
          <mxGeometry x="-1" y="-227" relative="1" as="geometry">
            <mxPoint x="77" y="140" as="sourcePoint" />
            <Array as="points">
              <mxPoint x="107" y="170" />
            </Array>
            <mxPoint x="-227" y="-212" as="offset" />
          </mxGeometry>
        </mxCell>
        <mxCell id="sWXjgbe4WIu8V-6H1I1--13" value="" style="html=1;points=[[0,0,0,0,5],[0,1,0,0,-5],[1,0,0,0,5],[1,1,0,0,-5]];perimeter=orthogonalPerimeter;outlineConnect=0;targetShapes=umlLifeline;portConstraint=eastwest;newEdgeStyle={&quot;curved&quot;:0,&quot;rounded&quot;:0};" vertex="1" parent="sWXjgbe4WIu8V-6H1I1--2">
          <mxGeometry x="73" y="230" width="10" height="60" as="geometry" />
        </mxCell>
        <mxCell id="sWXjgbe4WIu8V-6H1I1--14" value="append" style="html=1;align=left;spacingLeft=2;endArrow=block;rounded=0;edgeStyle=orthogonalEdgeStyle;curved=0;rounded=0;" edge="1" target="sWXjgbe4WIu8V-6H1I1--13" parent="sWXjgbe4WIu8V-6H1I1--2">
          <mxGeometry relative="1" as="geometry">
            <mxPoint x="78" y="210" as="sourcePoint" />
            <Array as="points">
              <mxPoint x="108" y="240" />
            </Array>
          </mxGeometry>
        </mxCell>
        <mxCell id="sWXjgbe4WIu8V-6H1I1--4" value="&lt;div style=&quot;color: rgb(204, 204, 204); background-color: rgb(31, 31, 31); font-family: Consolas, &amp;quot;Courier New&amp;quot;, monospace; font-size: 14px; line-height: 19px; white-space-collapse: preserve;&quot;&gt;&lt;span style=&quot;color: #9cdcfe;&quot;&gt;recv_prev_wait_handles&lt;/span&gt;&lt;/div&gt;" style="html=1;verticalAlign=bottom;endArrow=block;curved=0;rounded=0;" edge="1" parent="WIyWlLk6GJQsqaUBKTNV-1">
          <mxGeometry width="80" relative="1" as="geometry">
            <mxPoint x="94" y="103" as="sourcePoint" />
            <mxPoint x="334" y="103" as="targetPoint" />
          </mxGeometry>
        </mxCell>
        <mxCell id="sWXjgbe4WIu8V-6H1I1--12" value="&lt;font color=&quot;#ff0000&quot;&gt;只接受input不发送output&lt;/font&gt;" style="text;html=1;align=center;verticalAlign=middle;whiteSpace=wrap;rounded=0;" vertex="1" parent="WIyWlLk6GJQsqaUBKTNV-1">
          <mxGeometry x="134" y="175" width="150" height="30" as="geometry" />
        </mxCell>
        <mxCell id="sWXjgbe4WIu8V-6H1I1--15" value="&lt;div style=&quot;color: #cccccc;background-color: #1f1f1f;font-family: Consolas, &#39;Courier New&#39;, monospace;font-weight: normal;font-size: 14px;line-height: 19px;white-space: pre;&quot;&gt;&lt;div&gt;&lt;span style=&quot;color: #9cdcfe;&quot;&gt;recv_prev_wait_handles&lt;/span&gt;&lt;/div&gt;&lt;/div&gt;" style="text;whiteSpace=wrap;html=1;" vertex="1" parent="WIyWlLk6GJQsqaUBKTNV-1">
          <mxGeometry x="144" y="240" width="170" height="30" as="geometry" />
        </mxCell>
        <mxCell id="sWXjgbe4WIu8V-6H1I1--16" value="&lt;font color=&quot;#ff0000&quot;&gt;pop(0)&lt;/font&gt;" style="text;html=1;align=center;verticalAlign=middle;whiteSpace=wrap;rounded=0;" vertex="1" parent="WIyWlLk6GJQsqaUBKTNV-1">
          <mxGeometry x="174" y="109" width="60" height="20" as="geometry" />
        </mxCell>
        <mxCell id="sWXjgbe4WIu8V-6H1I1--17" value="&lt;div style=&quot;color: rgb(204, 204, 204); background-color: rgb(31, 31, 31); font-family: Consolas, &amp;quot;Courier New&amp;quot;, monospace; font-size: 14px; line-height: 19px; white-space-collapse: preserve;&quot;&gt;&lt;span style=&quot;color: #dcdcaa;&quot;&gt;forward_step_helper&lt;/span&gt;&lt;/div&gt;" style="html=1;verticalAlign=bottom;endArrow=block;curved=0;rounded=0;" edge="1" parent="WIyWlLk6GJQsqaUBKTNV-1" target="sWXjgbe4WIu8V-6H1I1--5">
          <mxGeometry width="80" relative="1" as="geometry">
            <mxPoint x="344" y="315" as="sourcePoint" />
            <mxPoint x="424" y="315" as="targetPoint" />
          </mxGeometry>
        </mxCell>
        <mxCell id="sWXjgbe4WIu8V-6H1I1--18" value="&lt;font color=&quot;#ff0000&quot;&gt;prefetch next iteration&lt;/font&gt;" style="text;html=1;align=center;verticalAlign=middle;whiteSpace=wrap;rounded=0;" vertex="1" parent="WIyWlLk6GJQsqaUBKTNV-1">
          <mxGeometry x="374" y="145" width="120" height="30" as="geometry" />
        </mxCell>
        <mxCell id="sWXjgbe4WIu8V-6H1I1--19" value="send data" style="shape=umlLifeline;perimeter=lifelinePerimeter;whiteSpace=wrap;html=1;container=1;dropTarget=0;collapsible=0;recursiveResize=0;outlineConnect=0;portConstraint=eastwest;newEdgeStyle={&quot;curved&quot;:0,&quot;rounded&quot;:0};" vertex="1" parent="WIyWlLk6GJQsqaUBKTNV-1">
          <mxGeometry x="692" y="5" width="100" height="805" as="geometry" />
        </mxCell>
        <mxCell id="sWXjgbe4WIu8V-6H1I1--20" value="" style="html=1;points=[[0,0,0,0,5],[0,1,0,0,-5],[1,0,0,0,5],[1,1,0,0,-5]];perimeter=orthogonalPerimeter;outlineConnect=0;targetShapes=umlLifeline;portConstraint=eastwest;newEdgeStyle={&quot;curved&quot;:0,&quot;rounded&quot;:0};" vertex="1" parent="sWXjgbe4WIu8V-6H1I1--19">
          <mxGeometry x="44" y="349" width="10" height="80" as="geometry" />
        </mxCell>
        <mxCell id="sWXjgbe4WIu8V-6H1I1--24" value="" style="html=1;points=[[0,0,0,0,5],[0,1,0,0,-5],[1,0,0,0,5],[1,1,0,0,-5]];perimeter=orthogonalPerimeter;outlineConnect=0;targetShapes=umlLifeline;portConstraint=eastwest;newEdgeStyle={&quot;curved&quot;:0,&quot;rounded&quot;:0};" vertex="1" parent="sWXjgbe4WIu8V-6H1I1--19">
          <mxGeometry x="44" y="449" width="10" height="62" as="geometry" />
        </mxCell>
        <mxCell id="sWXjgbe4WIu8V-6H1I1--25" value="&lt;div style=&quot;color: rgb(204, 204, 204); background-color: rgb(31, 31, 31); font-family: Consolas, &amp;quot;Courier New&amp;quot;, monospace; font-size: 14px; line-height: 19px; white-space-collapse: preserve;&quot;&gt;&lt;span style=&quot;color: #9cdcfe;&quot;&gt;fwd_wait_handles&lt;/span&gt;&lt;/div&gt;" style="html=1;align=left;spacingLeft=2;endArrow=block;rounded=0;edgeStyle=orthogonalEdgeStyle;curved=0;rounded=0;" edge="1" target="sWXjgbe4WIu8V-6H1I1--24" parent="sWXjgbe4WIu8V-6H1I1--19">
          <mxGeometry relative="1" as="geometry">
            <mxPoint x="49" y="429" as="sourcePoint" />
            <Array as="points">
              <mxPoint x="79" y="459" />
            </Array>
          </mxGeometry>
        </mxCell>
        <mxCell id="sWXjgbe4WIu8V-6H1I1--31" value="" style="html=1;points=[[0,0,0,0,5],[0,1,0,0,-5],[1,0,0,0,5],[1,1,0,0,-5]];perimeter=orthogonalPerimeter;outlineConnect=0;targetShapes=umlLifeline;portConstraint=eastwest;newEdgeStyle={&quot;curved&quot;:0,&quot;rounded&quot;:0};" vertex="1" parent="sWXjgbe4WIu8V-6H1I1--19">
          <mxGeometry x="44" y="541" width="10" height="70" as="geometry" />
        </mxCell>
        <mxCell id="sWXjgbe4WIu8V-6H1I1--37" value="" style="html=1;points=[[0,0,0,0,5],[0,1,0,0,-5],[1,0,0,0,5],[1,1,0,0,-5]];perimeter=orthogonalPerimeter;outlineConnect=0;targetShapes=umlLifeline;portConstraint=eastwest;newEdgeStyle={&quot;curved&quot;:0,&quot;rounded&quot;:0};" vertex="1" parent="sWXjgbe4WIu8V-6H1I1--19">
          <mxGeometry x="44" y="646" width="10" height="44" as="geometry" />
        </mxCell>
        <mxCell id="sWXjgbe4WIu8V-6H1I1--38" value="" style="html=1;align=left;spacingLeft=2;endArrow=block;rounded=0;edgeStyle=orthogonalEdgeStyle;curved=0;rounded=0;" edge="1" target="sWXjgbe4WIu8V-6H1I1--37" parent="sWXjgbe4WIu8V-6H1I1--19">
          <mxGeometry relative="1" as="geometry">
            <mxPoint x="49" y="511" as="sourcePoint" />
            <Array as="points">
              <mxPoint x="79" y="511" />
              <mxPoint x="79" y="656" />
              <mxPoint x="49" y="656" />
            </Array>
          </mxGeometry>
        </mxCell>
        <mxCell id="sWXjgbe4WIu8V-6H1I1--42" value="" style="html=1;points=[[0,0,0,0,5],[0,1,0,0,-5],[1,0,0,0,5],[1,1,0,0,-5]];perimeter=orthogonalPerimeter;outlineConnect=0;targetShapes=umlLifeline;portConstraint=eastwest;newEdgeStyle={&quot;curved&quot;:0,&quot;rounded&quot;:0};" vertex="1" parent="sWXjgbe4WIu8V-6H1I1--19">
          <mxGeometry x="45" y="725" width="10" height="55" as="geometry" />
        </mxCell>
        <mxCell id="sWXjgbe4WIu8V-6H1I1--21" value="dispatch" style="html=1;verticalAlign=bottom;endArrow=block;curved=0;rounded=0;exitX=0.503;exitY=0.686;exitDx=0;exitDy=0;exitPerimeter=0;" edge="1" parent="WIyWlLk6GJQsqaUBKTNV-1" target="sWXjgbe4WIu8V-6H1I1--20">
          <mxGeometry width="80" relative="1" as="geometry">
            <mxPoint x="523.3" y="365.3600000000001" as="sourcePoint" />
            <mxPoint x="754" y="364" as="targetPoint" />
          </mxGeometry>
        </mxCell>
        <mxCell id="sWXjgbe4WIu8V-6H1I1--22" value="&lt;div style=&quot;color: #cccccc;background-color: #1f1f1f;font-family: Consolas, &#39;Courier New&#39;, monospace;font-weight: normal;font-size: 14px;line-height: 19px;white-space: pre;&quot;&gt;&lt;div&gt;&lt;span style=&quot;color: #dcdcaa;&quot;&gt;send_forward_recv_forward&lt;/span&gt;&lt;/div&gt;&lt;/div&gt;" style="text;whiteSpace=wrap;html=1;" vertex="1" parent="WIyWlLk6GJQsqaUBKTNV-1">
          <mxGeometry x="534" y="378" width="200" height="30" as="geometry" />
        </mxCell>
        <mxCell id="sWXjgbe4WIu8V-6H1I1--23" value="&lt;font color=&quot;#ff0000&quot;&gt;发送output，不接受input&lt;/font&gt;" style="text;html=1;align=center;verticalAlign=middle;whiteSpace=wrap;rounded=0;" vertex="1" parent="WIyWlLk6GJQsqaUBKTNV-1">
          <mxGeometry x="558" y="408" width="142" height="27" as="geometry" />
        </mxCell>
        <mxCell id="sWXjgbe4WIu8V-6H1I1--26" value="&lt;div style=&quot;color: #cccccc;background-color: #1f1f1f;font-family: Consolas, &#39;Courier New&#39;, monospace;font-weight: normal;font-size: 14px;line-height: 19px;white-space: pre;&quot;&gt;&lt;div style=&quot;line-height: 19px;&quot;&gt;&lt;span style=&quot;color: #ce9178;&quot;&gt;&quot;send_next&quot; + &lt;/span&gt;&lt;/div&gt;&lt;div style=&quot;line-height: 19px;&quot;&gt;&lt;span style=&quot;color: #ce9178;&quot;&gt;&quot;&lt;/span&gt;&lt;span style=&quot;color: rgb(206, 145, 120);&quot;&gt;recv_prev&quot; 两个handle&lt;/span&gt;&lt;/div&gt;&lt;/div&gt;" style="text;whiteSpace=wrap;html=1;" vertex="1" parent="WIyWlLk6GJQsqaUBKTNV-1">
          <mxGeometry x="544" y="461" width="170" height="50" as="geometry" />
        </mxCell>
        <mxCell id="sWXjgbe4WIu8V-6H1I1--27" value="" style="endArrow=none;dashed=1;html=1;rounded=0;" edge="1" parent="WIyWlLk6GJQsqaUBKTNV-1">
          <mxGeometry width="50" height="50" relative="1" as="geometry">
            <mxPoint x="346" y="200" as="sourcePoint" />
            <mxPoint x="804" y="200" as="targetPoint" />
          </mxGeometry>
        </mxCell>
        <mxCell id="sWXjgbe4WIu8V-6H1I1--28" value="" style="endArrow=none;dashed=1;html=1;rounded=0;" edge="1" parent="WIyWlLk6GJQsqaUBKTNV-1" source="sWXjgbe4WIu8V-6H1I1--20">
          <mxGeometry width="50" height="50" relative="1" as="geometry">
            <mxPoint x="854" y="360" as="sourcePoint" />
            <mxPoint x="804" y="200" as="targetPoint" />
          </mxGeometry>
        </mxCell>
        <mxCell id="sWXjgbe4WIu8V-6H1I1--29" value="&lt;font color=&quot;#ff0000&quot;&gt;这两个相对应，一个发送，一个接受&lt;/font&gt;" style="text;html=1;align=center;verticalAlign=middle;whiteSpace=wrap;rounded=0;" vertex="1" parent="WIyWlLk6GJQsqaUBKTNV-1">
          <mxGeometry x="746" y="168" width="208" height="30" as="geometry" />
        </mxCell>
        <mxCell id="sWXjgbe4WIu8V-6H1I1--32" value="&lt;div style=&quot;color: #cccccc;background-color: #1f1f1f;font-family: Consolas, &#39;Courier New&#39;, monospace;font-weight: normal;font-size: 14px;line-height: 19px;white-space: pre;&quot;&gt;&lt;div&gt;&lt;span style=&quot;color: #9cdcfe;&quot;&gt;send_next_wait_handle&lt;/span&gt;&lt;/div&gt;&lt;div&gt;&lt;span style=&quot;color: #cccccc;&quot;&gt;  .wait()&lt;/span&gt;&lt;/div&gt;&lt;/div&gt;" style="text;whiteSpace=wrap;html=1;" vertex="1" parent="WIyWlLk6GJQsqaUBKTNV-1">
          <mxGeometry x="550" y="571" width="168" height="50" as="geometry" />
        </mxCell>
        <mxCell id="sWXjgbe4WIu8V-6H1I1--33" value="&lt;font color=&quot;#ff0000&quot;&gt;上一轮发送最晚结束时刻，因为新的发送已经开始了，&lt;/font&gt;" style="text;html=1;align=center;verticalAlign=middle;whiteSpace=wrap;rounded=0;" vertex="1" parent="WIyWlLk6GJQsqaUBKTNV-1">
          <mxGeometry x="558" y="541" width="160" height="30" as="geometry" />
        </mxCell>
        <mxCell id="sWXjgbe4WIu8V-6H1I1--35" value="&lt;div style=&quot;color: #cccccc;background-color: #1f1f1f;font-family: Consolas, &#39;Courier New&#39;, monospace;font-weight: normal;font-size: 14px;line-height: 19px;white-space: pre;&quot;&gt;&lt;div&gt;&lt;span style=&quot;color: #9cdcfe;&quot;&gt;send_next_wait_handle&lt;/span&gt;&lt;span style=&quot;color: #cccccc;&quot;&gt; &lt;/span&gt;&lt;/div&gt;&lt;div&gt;&lt;span style=&quot;color: #d4d4d4;&quot;&gt; = &lt;/span&gt;&lt;span style=&quot;color: rgb(156, 220, 254);&quot;&gt;fwd_wait_handles&lt;/span&gt;.pop(&lt;span style=&quot;color: rgb(206, 145, 120);&quot;&gt;&quot;send_next&quot;&lt;/span&gt;)&lt;/div&gt;&lt;/div&gt;" style="text;whiteSpace=wrap;html=1;" vertex="1" parent="WIyWlLk6GJQsqaUBKTNV-1">
          <mxGeometry x="784" y="533" width="280" height="50" as="geometry" />
        </mxCell>
        <mxCell id="sWXjgbe4WIu8V-6H1I1--36" value="&lt;div style=&quot;color: #cccccc;background-color: #1f1f1f;font-family: Consolas, &#39;Courier New&#39;, monospace;font-weight: normal;font-size: 14px;line-height: 19px;white-space: pre;&quot;&gt;&lt;div&gt;&lt;span style=&quot;color: #9cdcfe;&quot;&gt;recv_prev_wait_handles&lt;/span&gt;&lt;span style=&quot;color: #cccccc;&quot;&gt;.&lt;/span&gt;&lt;span style=&quot;color: #dcdcaa;&quot;&gt;append&lt;/span&gt;&lt;/div&gt;&lt;div&gt;&lt;span style=&quot;color: #cccccc;&quot;&gt;  (&lt;/span&gt;&lt;span style=&quot;color: #9cdcfe;&quot;&gt;fwd_wait_handles&lt;/span&gt;&lt;span style=&quot;color: #cccccc;&quot;&gt;.pop(&lt;/span&gt;&lt;span style=&quot;color: #ce9178;&quot;&gt;&quot;recv_prev&quot;&lt;/span&gt;&lt;span style=&quot;color: #cccccc;&quot;&gt;))&lt;/span&gt;&lt;/div&gt;&lt;/div&gt;" style="text;whiteSpace=wrap;html=1;" vertex="1" parent="WIyWlLk6GJQsqaUBKTNV-1">
          <mxGeometry x="784" y="583" width="290" height="50" as="geometry" />
        </mxCell>
        <mxCell id="sWXjgbe4WIu8V-6H1I1--39" value="&lt;font color=&quot;#ff0000&quot;&gt;update_new_handle&lt;/font&gt;" style="text;html=1;align=center;verticalAlign=middle;whiteSpace=wrap;rounded=0;" vertex="1" parent="WIyWlLk6GJQsqaUBKTNV-1">
          <mxGeometry x="558" y="650" width="160" height="30" as="geometry" />
        </mxCell>
        <mxCell id="sWXjgbe4WIu8V-6H1I1--44" value="&lt;div style=&quot;color: #cccccc;background-color: #1f1f1f;font-family: Consolas, &#39;Courier New&#39;, monospace;font-weight: normal;font-size: 14px;line-height: 19px;white-space: pre;&quot;&gt;&lt;div&gt;&lt;span style=&quot;color: #dcdcaa;&quot;&gt;send_backward_recv_backward&lt;/span&gt;&lt;/div&gt;&lt;/div&gt;" style="text;whiteSpace=wrap;html=1;" vertex="1" parent="WIyWlLk6GJQsqaUBKTNV-1">
          <mxGeometry x="760" y="740" width="220" height="30" as="geometry" />
        </mxCell>
        <mxCell id="sWXjgbe4WIu8V-6H1I1--45" value="&lt;font color=&quot;#ff0000&quot;&gt;最后一个step, 提前接收反向数据&lt;/font&gt;" style="text;html=1;align=center;verticalAlign=middle;whiteSpace=wrap;rounded=0;" vertex="1" parent="WIyWlLk6GJQsqaUBKTNV-1">
          <mxGeometry x="528" y="740" width="190" height="30" as="geometry" />
        </mxCell>
      </root>
    </mxGraphModel>
  </diagram>
</mxfile>
